<?xml version="1.0" encoding="UTF-8" standalone="no"?>
<!-- Created with Inkscape (http://www.inkscape.org/) -->

<svg
   width="120mm"
   height="120mm"
   viewBox="-60 -60 120 120"
   sodipodi:docname="blokator.svg"
   version="1.1"
   id="svg299"
   inkscape:export-filename="/home/tom/bitmap.jpg"
   inkscape:export-xdpi="96"
   inkscape:export-ydpi="96"
   inkscape:version="1.1.1 (3bf5ae0d25, 2021-09-20)"
   xmlns:inkscape="http://www.inkscape.org/namespaces/inkscape"
   xmlns:sodipodi="http://sodipodi.sourceforge.net/DTD/sodipodi-0.dtd"
   xmlns="http://www.w3.org/2000/svg"
   xmlns:svg="http://www.w3.org/2000/svg"
   xmlns:rdf="http://www.w3.org/1999/02/22-rdf-syntax-ns#"
   xmlns:cc="http://creativecommons.org/ns#"
   xmlns:dc="http://purl.org/dc/elements/1.1/">
  <title
     id="title11502">Blokator</title>
  <defs
     id="defs301" />
  <sodipodi:namedview
     pagecolor="#ff56ff"
     bordercolor="#666666"
     borderopacity="1.0"
     inkscape:pageopacity="1"
     inkscape:pageshadow="2"
     inkscape:zoom="0.70710678"
     inkscape:cx="100.40916"
     inkscape:cy="226.27417"
     inkscape:document-units="mm"
     inkscape:current-layer="Template"
     showgrid="false"
     units="mm"
     showguides="true"
     inkscape:guide-bbox="true"
     inkscape:snap-global="true"
     inkscape:snap-bbox="true"
     inkscape:snap-bbox-midpoints="true"
     inkscape:window-width="1346"
     inkscape:window-height="728"
     inkscape:window-x="8"
     inkscape:window-y="28"
     inkscape:window-maximized="0"
     inkscape:bbox-paths="true"
     inkscape:bbox-nodes="true"
     inkscape:snap-bbox-edge-midpoints="true"
     inkscape:snap-grids="true"
     id="namedview289"
     inkscape:pagecheckerboard="false">
    <sodipodi:guide
       orientation="1,0"
       position="226.771653543,226.771653543"
       id="guide2827" />
    <sodipodi:guide
       orientation="0,1"
       position="226.771653543,226.771653543"
       id="guide2829" />
    <inkscape:grid
       type="xygrid"
       id="grid3072"
       empspacing="10"
       visible="true"
       enabled="true"
       snapvisiblegridlinesonly="true"
       units="mm"
       dotted="false"
       spacingx="0.1mm"
       spacingy="0.1mm" />
  </sodipodi:namedview>
  <metadata
     id="metadata2822">
    <rdf:RDF>
      <cc:Work
         rdf:about="">
        <dc:format>image/svg+xml</dc:format>
        <dc:type
           rdf:resource="http://purl.org/dc/dcmitype/StillImage" />
        <cc:license
           rdf:resource="http://creativecommons.org/licenses/by-sa/4.0/" />
        <dc:title>Blokator</dc:title>
        <dc:creator>
          <cc:Agent>
            <dc:title>Tomas Zierl</dc:title>
          </cc:Agent>
        </dc:creator>
      </cc:Work>
      <cc:License
         rdf:about="http://creativecommons.org/licenses/by-sa/4.0/">
        <cc:permits
           rdf:resource="http://creativecommons.org/ns#Reproduction" />
        <cc:permits
           rdf:resource="http://creativecommons.org/ns#Distribution" />
        <cc:requires
           rdf:resource="http://creativecommons.org/ns#Notice" />
        <cc:requires
           rdf:resource="http://creativecommons.org/ns#Attribution" />
        <cc:permits
           rdf:resource="http://creativecommons.org/ns#DerivativeWorks" />
        <cc:requires
           rdf:resource="http://creativecommons.org/ns#ShareAlike" />
      </cc:License>
    </rdf:RDF>
  </metadata>
  <g
     inkscape:label="Layer 1"
     inkscape:groupmode="layer"
     id="Template"
     style="fill:none;stroke:black;stroke-width:0.05">
    <path
       d="m -14.719185,-41.805952 a 6.2708929,6.2708929 0 0 0 -4.434908,1.835971 l -20.812398,20.819364 a 6.2708929,6.2708929 0 0 0 -1.839462,4.431432 v 29.438369 c 0,1.665259 0.661916,3.260863 1.839462,4.438395 l 20.812398,20.812399 a 6.2708929,6.2708929 0 0 0 4.434908,1.835974 H 14.719182 A 6.2708929,6.2708929 0 0 0 19.15409,39.969978 L 39.969978,19.157579 a 6.2708929,6.2708929 0 0 0 1.835974,-4.438395 v -29.438369 a 6.2708929,6.2708929 0 0 0 -1.835974,-4.431432 L 19.15409,-39.969981 a 6.2708929,6.2708929 0 0 0 -4.434908,-1.835971 z m 15.42291923,10.451486 c 3.55350507,0 3.33750927,3.860079 3.33750927,3.860079 v 23.6343083 c 0,0 -0.031601,0.7594859 0.5573696,0.7594859 0.6549376,0 0.6096426,-0.7874014 0.6096426,-0.7874014 L 5.2013157,-23.50195 c 0,0 -0.1742013,-3.435054 3.3409871,-3.435054 3.5186662,0 3.3793172,3.424599 3.3793172,3.424599 V 3.037862 c 0,0 0.04873,0.550392 0.491269,0.550392 0.442418,0 3.288738,-7.3926881 3.288738,-7.3926881 0,0 1.571207,-5.2152894 8.974351,-3.8322166 0.132326,0.027645 -0.581859,2.3968831 -0.581859,2.3968831 L 16.140537,17.600212 c 0,0 -3.285263,12.70901 -17.13696417,12.70901 -17.57243083,0 -16.75024183,-18.837063 -16.77115283,-18.830098 V -15.46133 c 0,0 -0.05531,-3.448984 3.124993,-3.448984 2.989132,0 2.957781,3.448984 2.957781,3.448984 l 0.02501,12.4825597 c 0,0 -0.01448,0.5992403 0.581729,0.5992403 0.55737,0 0.49127,-0.5992403 0.49127,-0.5992403 l 0.03423,-20.6451757 c 0,0 -0.191582,-4.048198 3.3653855,-4.048198 3.623173,0 3.424598,3.97853 3.424598,3.97853 v 19.5477665 c 0,0 -0.01712,0.7107673 0.529587,0.7107673 0.5852825,0 0.5365641,-0.717615 0.5365641,-0.717615 l 0.034234,-23.3172788 c 0,0 -0.1951393,-3.884465 3.36538603,-3.884465 z"
       id="path2062"
       style="opacity:1;fill:#000000;fill-opacity:0;stroke:#000000;stroke-width:2.518;stroke-miterlimit:4;stroke-dasharray:none;stroke-opacity:1;paint-order:normal;stroke-dashoffset:0" />
  </g>
</svg>
