<?xml version="1.0" encoding="UTF-8" standalone="no"?>
<!-- Created with Inkscape (http://www.inkscape.org/) -->

<svg
   width="500mm"
   height="500mm"
   viewBox="0 0 500 500"
   version="1.1"
   id="svg1"
   inkscape:version="1.3.2 (091e20ef0f, 2023-11-25, custom)"
   sodipodi:docname="blokator.svg"
   inkscape:export-filename="../../../Downloads/blokator.jpg"
   inkscape:export-xdpi="52.019199"
   inkscape:export-ydpi="52.019199"
   xmlns:inkscape="http://www.inkscape.org/namespaces/inkscape"
   xmlns:sodipodi="http://sodipodi.sourceforge.net/DTD/sodipodi-0.dtd"
   xmlns="http://www.w3.org/2000/svg"
   xmlns:svg="http://www.w3.org/2000/svg"
   xmlns:rdf="http://www.w3.org/1999/02/22-rdf-syntax-ns#"
   xmlns:cc="http://creativecommons.org/ns#">
  <sodipodi:namedview
     id="namedview1"
     pagecolor="#1e1e2e"
     bordercolor="#000000"
     borderopacity="0.25"
     inkscape:showpageshadow="2"
     inkscape:pageopacity="0.0"
     inkscape:pagecheckerboard="false"
     inkscape:deskcolor="#d1d1d1"
     inkscape:document-units="mm"
     inkscape:zoom="0.27527861"
     inkscape:cx="891.82373"
     inkscape:cy="726.53664"
     inkscape:window-width="1916"
     inkscape:window-height="1044"
     inkscape:window-x="0"
     inkscape:window-y="0"
     inkscape:window-maximized="1"
     inkscape:current-layer="layer1"
     inkscape:export-bgcolor="#1e1e2eff" />
  <defs
     id="defs1" />
  <g
     inkscape:label="Layer 1"
     inkscape:groupmode="layer"
     id="layer1">
    <rect
       style="fill:#dce0e8;fill-opacity:1;stroke:none;stroke-width:17.245;stroke-dasharray:none;stroke-opacity:0.0508906"
       id="rect2"
       width="244.66818"
       height="319.42792"
       x="127.66591"
       y="90.286041" />
    <path
       fill="currentColor"
       d="m 176.29478,40.658874 a 31.401169,31.401169 0 0 0 -22.20797,9.19387 L 49.869871,154.10464 a 31.401169,31.401169 0 0 0 -9.211,22.19015 v 147.41109 c 0,8.33871 3.3165,16.3286 9.211,22.22511 L 154.08681,450.14792 a 31.401169,31.401169 0 0 0 22.20797,9.19321 H 323.7052 a 31.401169,31.401169 0 0 0 22.20798,-9.19321 L 450.14725,345.93099 a 31.401169,31.401169 0 0 0 9.19387,-22.22511 V 176.29479 a 31.401169,31.401169 0 0 0 -9.19387,-22.19015 L 345.91318,49.852744 a 31.401169,31.401169 0 0 0 -22.20798,-9.19387 z m 77.2294,52.335281 c 17.79367,0 16.71234,19.329285 16.71234,19.329285 v 118.34794 c 0,0 -0.13186,3.80442 2.78902,3.80442 3.27693,0 3.05274,-3.94287 3.05274,-3.94287 l -0.0349,-98.21626 c 0,0 -0.87033,-17.20026 16.73017,-17.20026 17.6196,0 16.92135,17.14816 16.92135,17.14816 v 132.94909 c 0,0 0.26374,2.75605 2.45934,2.75605 2.21539,0 16.46838,-37.01811 16.46838,-37.01811 0,0 7.86727,-26.11521 44.93813,-19.18947 0.66593,0.13185 -2.91429,12.002 -2.91429,12.002 L 330.8189,338.13427 c 0,0 -16.45058,63.63969 -85.81206,63.63969 -87.99316,0 -83.87622,-94.32547 -83.98106,-94.29052 V 172.58005 c 0,0 -0.26374,-17.27014 15.64881,-17.27014 14.96774,0 14.81081,17.27014 14.81081,17.27014 l 0.13186,62.50563 c 0,0 -0.0659,3.00002 2.91428,3.00002 2.78902,0 2.45936,-3.00002 2.45936,-3.00002 l 0.19779,-103.37957 c 0,0 -0.95604,-20.27082 16.85213,-20.27082 18.14247,0 17.14816,19.92204 17.14816,19.92204 v 97.88461 c 0,0 -0.0659,3.56044 2.65057,3.56044 2.93407,0 2.68352,-3.5934 2.68352,-3.5934 l 0.1978,-116.76027 c 0,0 -0.97583,-19.451255 16.85212,-19.451255"
       id="path1"
       style="fill:#ec3769;fill-opacity:1;stroke:#000000;stroke-width:17.245;stroke-dasharray:none;stroke-opacity:0.0508906" />
  </g>
  <metadata
     id="metadata1">
    <rdf:RDF>
      <cc:Work
         rdf:about="">
        <cc:license
           rdf:resource="http://creativecommons.org/licenses/by-sa/4.0/" />
      </cc:Work>
      <cc:License
         rdf:about="http://creativecommons.org/licenses/by-sa/4.0/">
        <cc:permits
           rdf:resource="http://creativecommons.org/ns#Reproduction" />
        <cc:permits
           rdf:resource="http://creativecommons.org/ns#Distribution" />
        <cc:requires
           rdf:resource="http://creativecommons.org/ns#Notice" />
        <cc:requires
           rdf:resource="http://creativecommons.org/ns#Attribution" />
        <cc:permits
           rdf:resource="http://creativecommons.org/ns#DerivativeWorks" />
        <cc:requires
           rdf:resource="http://creativecommons.org/ns#ShareAlike" />
      </cc:License>
    </rdf:RDF>
  </metadata>
</svg>
